<svg xmlns="http://www.w3.org/2000/svg" version="1.1" xmlns:xlink="http://www.w3.org/1999/xlink" xmlns:svgjs="http://svgjs.dev/svgjs" width="512" height="512"><svg width="512" height="512" viewBox="0 0 512 512" fill="none" xmlns="http://www.w3.org/2000/svg">
<rect width="512" height="512" rx="50" fill="#FEF9EC"></rect>
<path d="M113.815 109.802C140.266 84.5862 176.183 69.8681 212.586 68.0373C225.045 68.0373 237.541 68.112 250 68C249.364 81.3365 250 94.7103 249.626 108.046C247.867 137.857 236.83 166.995 218.236 190.38C194.067 221.835 157.102 242.941 117.856 248.396C100.721 251.16 83.3232 249.404 66.0758 249.89C66.3748 235.209 65.4397 220.49 66.5997 205.846C69.9671 169.536 87.1397 134.757 113.815 109.802Z" fill="#3DA5D9"></path>
<path d="M262 68C275.316 68.1494 288.632 67.9253 301.985 68.0747C335.219 70.4289 368.005 83.21 393.031 105.372C420.634 129.103 439.545 163.036 444.396 199.287C446.518 216.104 445.179 233.108 446 250C434.359 249.963 422.762 249.925 411.121 250C382.515 249.215 354.391 239.947 330.445 224.326C319.404 216.403 308.065 208.368 299.785 197.381C281.62 177.051 269.274 151.526 264.611 124.618C261.105 105.932 262.522 86.873 262 68Z" fill="#3DA5D9"></path>
<path d="M66.1383 261C78.008 261.673 89.9151 260.439 101.747 261.748C152.407 262.832 201.57 291.256 227.817 334.528C242.87 358.763 250.958 387.488 249.909 416.026C249.871 425.374 250.022 434.684 249.759 444C230.963 443.436 211.979 444.969 193.37 441.34C152.033 434.386 114.028 409.813 91.1502 374.733C73.8143 349.227 65.165 318.072 66.0635 287.292C66.0635 278.503 66.0635 269.751 66.1383 261Z" fill="#3DA5D9"></path>
<path d="M383.135 264.828C403.47 260.297 424.431 261.046 445.101 261.046L446 261.945C445.551 281.524 447.082 301.328 443.158 320.682C434.899 364.108 406.198 402.895 367.589 424.196C343.558 437.597 315.976 444.184 288.506 443.886C279.724 443.924 270.903 443.734 262.121 444C262.121 427.79 261.448 411.504 263.279 395.37C267.54 356.321 288.618 319.971 318.929 295.413C337.69 280.588 359.74 269.844 383.135 264.828Z" fill="#3DA5D9"></path>
</svg><style>@media (prefers-color-scheme: light) { :root { filter: none; } }
@media (prefers-color-scheme: dark) { :root { filter: none; } }
</style></svg>